<svg width="814" height="683" viewBox="0 0 814 683" fill="none" xmlns="http://www.w3.org/2000/svg">
<path opacity="0.2" d="M750.23 0H64.7073V683H750.23V0Z" fill="#353535"/>
<path opacity="0.5" d="M646.136 63.7685H167.864V620.166H646.136V63.7685Z" fill="#353535"/>
<path d="M814 98.1053H557.984V588.632H814V98.1053Z" fill="url(#paint0_linear)"/>
<path d="M256.016 99.974H0V590.501H256.016V99.974Z" fill="url(#paint1_linear)"/>
<path d="M805.56 105.58H566.424V578.354H805.56V105.58Z" fill="#353535"/>
<path d="M8.44 578.354H247.576L247.576 105.58L8.44 105.58L8.44 578.354Z" fill="#353535"/>
<path d="M208.189 148.56H47.8271V177.524H208.189V148.56Z" fill="url(#paint2_linear)"/>
<path d="M767.111 192.473H606.749V221.438H767.111V192.473Z" fill="url(#paint3_linear)"/>
<path d="M766.173 237.321H605.811V266.286H766.173V237.321Z" fill="url(#paint4_linear)"/>
<path d="M766.173 282.17H605.811V311.134H766.173V282.17Z" fill="url(#paint5_linear)"/>
<path d="M766.173 327.018H605.811V355.982H766.173V327.018Z" fill="url(#paint6_linear)"/>
<path d="M766.173 371.866H605.811V400.83H766.173V371.866Z" fill="url(#paint7_linear)"/>
<path d="M766.173 416.714H605.811V445.679H766.173V416.714Z" fill="url(#paint8_linear)"/>
<path d="M766.173 461.562H605.811V490.527H766.173V461.562Z" fill="url(#paint9_linear)"/>
<path d="M766.173 506.41H605.811V535.375H766.173V506.41Z" fill="url(#paint10_linear)"/>
<path d="M766.173 148.56H605.811V177.524H766.173V148.56Z" fill="url(#paint11_linear)"/>
<path d="M208.189 194.342H47.8271V223.306H208.189V194.342Z" fill="url(#paint12_linear)"/>
<path d="M208.189 238.256H47.8271V267.22H208.189V238.256Z" fill="url(#paint13_linear)"/>
<path d="M208.189 282.17H47.8271V311.134H208.189V282.17Z" fill="url(#paint14_linear)"/>
<path d="M208.189 327.018H47.8271V355.982H208.189V327.018Z" fill="url(#paint15_linear)"/>
<path d="M208.189 371.866H47.8271V400.83H208.189V371.866Z" fill="url(#paint16_linear)"/>
<path d="M205.376 152.297H51.5784V174.721H205.376V152.297Z" fill="white"/>
<path d="M204.907 196.211H51.1094V218.635H204.907V196.211Z" fill="white"/>
<path d="M204.907 241.059H51.1094V263.483H204.907V241.059Z" fill="white"/>
<path d="M204.907 285.907H51.1094V308.331H204.907V285.907Z" fill="white"/>
<path d="M204.907 330.755H51.1094V353.179H204.907V330.755Z" fill="white"/>
<path d="M204.907 375.603H51.1094V398.027H204.907V375.603Z" fill="white"/>
<path d="M208.189 416.714H47.8271V445.679H208.189V416.714Z" fill="url(#paint17_linear)"/>
<path d="M204.907 420.451H51.1094V442.876H204.907V420.451Z" fill="white"/>
<path d="M204.907 420.451H51.1094V442.876H204.907V420.451Z" fill="white"/>
<path d="M204.907 465.3H51.1094V487.724H204.907V465.3Z" fill="white"/>
<path d="M204.907 510.148H51.1094V532.572H204.907V510.148Z" fill="white"/>
<path d="M763.359 151.363H609.562V173.787H763.359V151.363Z" fill="white"/>
<path d="M763.359 196.211H609.562V218.635H763.359V196.211Z" fill="white"/>
<path d="M763.359 241.059H609.562V263.483H763.359V241.059Z" fill="white"/>
<path d="M763.359 285.907H609.562V308.331H763.359V285.907Z" fill="white"/>
<path d="M763.359 330.755H609.562V353.179H763.359V330.755Z" fill="white"/>
<path d="M763.359 375.603H609.562V398.027H763.359V375.603Z" fill="white"/>
<path d="M763.359 420.451H609.562V442.876H763.359V420.451Z" fill="white"/>
<path d="M763.359 465.3H609.562V487.724H763.359V465.3Z" fill="white"/>
<path d="M763.359 510.148H609.562V532.572H763.359V510.148Z" fill="white"/>
<path d="M689.274 602.647H123.788V638.152H689.274V602.647Z" fill="url(#paint18_linear)"/>
<path d="M685.523 606.384H128.477V634.415H685.523V606.384Z" fill="#353535"/>
<path d="M690.212 46.7168H125.664V83.1559H690.212V46.7168Z" fill="url(#paint19_linear)"/>
<path d="M685.523 49.5198H128.477V77.5499H685.523V49.5198Z" fill="#353535"/>
<path opacity="0.5" d="M544.855 105.58H271.021V578.354H544.855V105.58Z" fill="#263238"/>
<path d="M618.621 311.181C625.186 319.945 615.358 330.297 615.358 330.297L617.008 330.867C614.579 333.549 604.986 345.649 567.999 400.382C520.641 470.457 456.825 487.939 456.825 487.939C449.071 481.903 440.25 477.368 430.82 474.568V467.953C442.87 464.412 453.88 458.018 462.911 449.317C471.942 440.615 478.724 429.865 482.679 417.985C488.326 406.849 491.262 394.545 491.251 382.069C491.251 337.221 453.955 300.838 407.956 300.838C361.958 300.838 324.662 337.211 324.662 382.069C324.651 394.545 327.587 406.849 333.234 417.985C337.189 429.865 343.971 440.615 353.002 449.317C362.033 458.018 373.043 464.412 385.093 467.953V474.568C375.663 477.368 366.842 481.903 359.088 487.939V487.939C359.088 487.939 295.244 470.438 247.885 400.363C210.899 345.63 201.306 333.521 198.877 330.849L200.527 330.279C200.527 330.279 190.727 319.926 197.264 311.162C203.8 302.398 153.985 292.046 159.696 311.162C165.407 330.279 172.759 339.837 172.759 339.837C172.759 339.837 277.041 503.701 331.48 530.778C330.194 536.33 329.546 542.01 329.548 547.708V579.569H486.327V547.708C486.33 542.01 485.682 536.33 484.396 530.778C538.787 503.682 643.116 339.846 643.116 339.846C643.116 339.846 650.468 330.288 656.18 311.171C661.891 292.055 612.085 302.417 618.621 311.181Z" fill="url(#paint20_linear)"/>
<path d="M407.938 465.795C451.992 465.795 487.706 430.213 487.706 386.32C487.706 342.427 451.992 306.845 407.938 306.845C363.883 306.845 328.169 342.427 328.169 386.32C328.169 430.213 363.883 465.795 407.938 465.795Z" fill="#263238"/>
<path d="M407.938 473.596C449.403 473.596 483.017 440.106 483.017 398.793C483.017 357.481 449.403 323.99 407.938 323.99C366.473 323.99 332.858 357.481 332.858 398.793C332.858 440.106 366.473 473.596 407.938 473.596Z" fill="#F8C198"/>
<path d="M378.219 391.777C383.404 391.777 387.607 387.589 387.607 382.424C387.607 377.259 383.404 373.071 378.219 373.071C373.035 373.071 368.832 377.259 368.832 382.424C368.832 387.589 373.035 391.777 378.219 391.777Z" fill="#263238"/>
<path d="M439.222 391.777C444.407 391.777 448.61 387.589 448.61 382.424C448.61 377.259 444.407 373.071 439.222 373.071C434.038 373.071 429.835 377.259 429.835 382.424C429.835 387.589 434.038 391.777 439.222 391.777Z" fill="#263238"/>
<path d="M429.835 433.065C429.835 438.671 420.035 447.874 407.938 447.874C395.84 447.874 386.041 438.671 386.041 433.065C386.041 427.459 395.84 427.608 407.938 427.608C420.035 427.608 429.835 427.459 429.835 433.065Z" fill="white"/>
<path d="M380.564 385.545C382.294 385.545 383.696 384.147 383.696 382.424C383.696 380.7 382.294 379.303 380.564 379.303C378.834 379.303 377.432 380.7 377.432 382.424C377.432 384.147 378.834 385.545 380.564 385.545Z" fill="white"/>
<path d="M442.345 385.545C444.075 385.545 445.477 384.147 445.477 382.424C445.477 380.7 444.075 379.303 442.345 379.303C440.615 379.303 439.213 380.7 439.213 382.424C439.213 384.147 440.615 385.545 442.345 385.545Z" fill="white"/>
<path d="M415.44 357.272C410.864 357.272 406.756 353.31 406.268 348.778C406.11 346.5 406.654 344.228 407.827 342.266C409 340.304 410.747 338.746 412.833 337.8C413.26 337.58 413.731 337.459 414.212 337.445C415.787 337.445 416.565 339.314 417.072 340.799C418.647 345.396 421.442 349.881 425.831 352.011C430.22 354.142 436.353 353.048 438.669 348.769C432.461 346.013 429.807 337.361 433.417 331.624C434.815 329.41 436.99 327.532 437.431 324.953C438.238 320.281 433.099 316.88 428.55 315.479C415.421 311.433 369.657 310.985 367.135 330.503C364.49 351.096 401.026 360 415.44 357.272Z" fill="#263238"/>
<path d="M340.854 411.916C343.263 410.969 343.031 404.684 340.336 397.877C337.641 391.07 333.503 386.32 331.094 387.267C328.685 388.214 328.917 394.499 331.613 401.306C334.308 408.113 338.446 412.863 340.854 411.916Z" fill="#F8C198"/>
<path d="M484.241 401.257C486.936 394.45 487.168 388.165 484.759 387.218C482.35 386.271 478.213 391.021 475.517 397.828C472.822 404.634 472.59 410.92 474.999 411.867C477.408 412.814 481.546 408.063 484.241 401.257Z" fill="#F8C198"/>
<path d="M454.743 489.91C454.743 489.91 515.858 472.812 561.219 404.241C606.58 335.67 608.924 335.483 608.924 335.483L633.166 345.022C633.166 345.022 520.557 525.798 472.073 535.151C423.589 544.503 454.743 489.91 454.743 489.91Z" fill="#FF9800"/>
<path d="M606.589 335.679C606.589 335.679 615.967 325.551 609.722 316.992C603.476 308.434 651.172 298.306 645.695 316.992C640.218 335.679 633.185 345.022 633.185 345.022L606.589 335.679Z" fill="#F8C198"/>
<path d="M361.133 489.91C361.133 489.91 300.017 472.812 254.656 404.241C209.296 335.67 206.951 335.483 206.951 335.483L182.709 345.022C182.709 345.022 295.328 525.798 343.821 535.151C392.314 544.503 361.133 489.91 361.133 489.91Z" fill="#FF9800"/>
<path d="M209.286 335.679C209.286 335.679 199.908 325.551 206.154 316.992C212.4 308.434 164.704 298.306 170.18 316.992C175.657 335.679 182.691 345.022 182.691 345.022L209.286 335.679Z" fill="#F8C198"/>
<g opacity="0.2">
<path opacity="0.2" d="M433.53 320.262C433.08 322.841 430.904 324.71 429.516 326.934C426.356 331.96 427.997 339.23 432.63 342.817C431.964 341.135 431.689 339.325 431.827 337.522C431.965 335.719 432.512 333.971 433.427 332.409C434.824 330.194 437 328.316 437.441 325.738C437.947 322.813 436.118 320.384 433.568 318.637C433.634 319.178 433.622 319.725 433.53 320.262V320.262Z" fill="white"/>
<path opacity="0.2" d="M413.996 338.239C413.696 337.538 413.414 336.828 413.171 336.118C412.664 334.633 411.886 332.811 410.31 332.764C409.83 332.778 409.359 332.899 408.932 333.119C406.846 334.065 405.099 335.623 403.926 337.585C402.753 339.547 402.209 341.819 402.367 344.097C402.541 345.472 403.005 346.794 403.727 347.977C404.45 349.16 405.415 350.179 406.559 350.965C406.427 350.503 406.333 350.031 406.278 349.554C406.12 347.276 406.663 345.004 407.837 343.042C409.01 341.08 410.756 339.522 412.842 338.575C413.205 338.4 413.595 338.287 413.996 338.239V338.239Z" fill="white"/>
<path opacity="0.2" d="M407.384 353.039C395.981 353.515 377.582 349.18 368.513 339.958C375.284 354.31 403.258 360.317 415.403 358.01C413.746 357.954 412.133 357.466 410.726 356.593C409.319 355.721 408.166 354.495 407.384 353.039V353.039Z" fill="white"/>
<path opacity="0.2" d="M433.896 345.34C431.157 348.545 425.849 349.218 421.939 347.321C420.661 346.693 419.491 345.871 418.469 344.882C419.984 348.253 422.58 351.027 425.849 352.768C430.238 354.889 436.371 353.805 438.688 349.526C436.715 348.625 435.05 347.17 433.896 345.34Z" fill="white"/>
</g>
<path opacity="0.2" d="M630.053 345.022C630.053 345.022 517.434 525.798 468.894 535.151C466.089 535.71 463.246 536.057 460.388 536.188C464.295 536.299 468.201 535.95 472.026 535.151C520.519 525.807 633.138 345.022 633.138 345.022L630.625 344.135C630.278 344.723 630.053 345.022 630.053 345.022Z" fill="white"/>
<path opacity="0.2" d="M185.823 345.022C185.823 345.022 298.442 525.798 346.982 535.151C349.786 535.71 352.63 536.057 355.487 536.188C351.581 536.299 347.674 535.95 343.849 535.151C295.356 525.807 182.737 345.022 182.737 345.022L185.251 344.135C185.598 344.723 185.823 345.022 185.823 345.022Z" fill="white"/>
<path d="M407.938 473.596C417.797 473.596 427.56 475.531 436.669 479.29C445.778 483.05 454.055 488.56 461.027 495.506C467.999 502.452 473.529 510.698 477.302 519.774C481.075 528.849 483.017 538.576 483.017 548.399V579.569H332.858V548.399C332.858 538.576 334.8 528.849 338.573 519.774C342.347 510.698 347.877 502.452 354.849 495.506C361.82 488.56 370.097 483.05 379.206 479.29C388.315 475.531 398.078 473.596 407.938 473.596V473.596Z" fill="#FF9800"/>
<path opacity="0.2" d="M408.716 473.989C405.984 473.989 403.254 474.135 400.539 474.428C401.476 474.428 402.33 474.372 403.239 474.372C423.152 474.372 442.248 482.253 456.328 496.281C470.409 510.31 478.319 529.336 478.319 549.175V579.952H483.795V548.792C483.795 528.953 475.885 509.926 461.805 495.898C447.725 481.87 428.628 473.989 408.716 473.989Z" fill="white"/>
<path opacity="0.2" d="M407.159 473.989C409.891 473.989 412.621 474.135 415.337 474.428C414.399 474.428 413.546 474.372 412.636 474.372C392.724 474.372 373.627 482.253 359.547 496.281C345.467 510.31 337.557 529.336 337.557 549.175V579.952H332.08V548.792C332.08 528.953 339.99 509.926 354.07 495.898C368.15 481.87 387.247 473.989 407.159 473.989V473.989Z" fill="white"/>
<path d="M429.835 474.764C429.835 462.715 420.031 452.948 407.938 452.948C395.844 452.948 386.041 462.715 386.041 474.764V483.725C386.041 495.774 395.844 505.541 407.938 505.541C420.031 505.541 429.835 495.774 429.835 483.725V474.764Z" fill="#F8C198"/>
<defs>
<linearGradient id="paint0_linear" x1="685.992" y1="588.632" x2="685.992" y2="98.1053" gradientUnits="userSpaceOnUse">
<stop stop-color="#808080" stop-opacity="0.25"/>
<stop offset="0.54" stop-color="#808080" stop-opacity="0.12"/>
<stop offset="1" stop-color="#808080" stop-opacity="0.1"/>
</linearGradient>
<linearGradient id="paint1_linear" x1="34946.2" y1="310113" x2="34946.2" y2="52586.3" gradientUnits="userSpaceOnUse">
<stop stop-color="#808080" stop-opacity="0.25"/>
<stop offset="0.54" stop-color="#808080" stop-opacity="0.12"/>
<stop offset="1" stop-color="#808080" stop-opacity="0.1"/>
</linearGradient>
<linearGradient id="paint2_linear" x1="128.008" y1="177.524" x2="128.008" y2="148.56" gradientUnits="userSpaceOnUse">
<stop stop-opacity="0.12"/>
<stop offset="0.55" stop-opacity="0.09"/>
<stop offset="1" stop-opacity="0.02"/>
</linearGradient>
<linearGradient id="paint3_linear" x1="118072" y1="7057.04" x2="118072" y2="6159.15" gradientUnits="userSpaceOnUse">
<stop stop-opacity="0.12"/>
<stop offset="0.55" stop-opacity="0.09"/>
<stop offset="1" stop-opacity="0.02"/>
</linearGradient>
<linearGradient id="paint4_linear" x1="117910" y1="8492.18" x2="117910" y2="7594.28" gradientUnits="userSpaceOnUse">
<stop stop-opacity="0.12"/>
<stop offset="0.55" stop-opacity="0.09"/>
<stop offset="1" stop-opacity="0.02"/>
</linearGradient>
<linearGradient id="paint5_linear" x1="117910" y1="9927.32" x2="117910" y2="9029.42" gradientUnits="userSpaceOnUse">
<stop stop-opacity="0.12"/>
<stop offset="0.55" stop-opacity="0.09"/>
<stop offset="1" stop-opacity="0.02"/>
</linearGradient>
<linearGradient id="paint6_linear" x1="117910" y1="11362.5" x2="117910" y2="10464.6" gradientUnits="userSpaceOnUse">
<stop stop-opacity="0.12"/>
<stop offset="0.55" stop-opacity="0.09"/>
<stop offset="1" stop-opacity="0.02"/>
</linearGradient>
<linearGradient id="paint7_linear" x1="117910" y1="12797.6" x2="117910" y2="11899.7" gradientUnits="userSpaceOnUse">
<stop stop-opacity="0.12"/>
<stop offset="0.55" stop-opacity="0.09"/>
<stop offset="1" stop-opacity="0.02"/>
</linearGradient>
<linearGradient id="paint8_linear" x1="117910" y1="14232.7" x2="117910" y2="13334.8" gradientUnits="userSpaceOnUse">
<stop stop-opacity="0.12"/>
<stop offset="0.55" stop-opacity="0.09"/>
<stop offset="1" stop-opacity="0.02"/>
</linearGradient>
<linearGradient id="paint9_linear" x1="117910" y1="15667.9" x2="117910" y2="14770" gradientUnits="userSpaceOnUse">
<stop stop-opacity="0.12"/>
<stop offset="0.55" stop-opacity="0.09"/>
<stop offset="1" stop-opacity="0.02"/>
</linearGradient>
<linearGradient id="paint10_linear" x1="117910" y1="17103" x2="117910" y2="16205.1" gradientUnits="userSpaceOnUse">
<stop stop-opacity="0.12"/>
<stop offset="0.55" stop-opacity="0.09"/>
<stop offset="1" stop-opacity="0.02"/>
</linearGradient>
<linearGradient id="paint11_linear" x1="117910" y1="148.56" x2="117910" y2="148.56" gradientUnits="userSpaceOnUse">
<stop stop-opacity="0.12"/>
<stop offset="0.55" stop-opacity="0.09"/>
<stop offset="1" stop-opacity="0.02"/>
</linearGradient>
<linearGradient id="paint12_linear" x1="8226.28" y1="6667.89" x2="35648.1" y2="6667.89" gradientUnits="userSpaceOnUse">
<stop stop-opacity="0.12"/>
<stop offset="0.55" stop-opacity="0.09"/>
<stop offset="1" stop-opacity="0.02"/>
</linearGradient>
<linearGradient id="paint13_linear" x1="8226.28" y1="8073.13" x2="35648.1" y2="8073.13" gradientUnits="userSpaceOnUse">
<stop stop-opacity="0.12"/>
<stop offset="0.55" stop-opacity="0.09"/>
<stop offset="1" stop-opacity="0.02"/>
</linearGradient>
<linearGradient id="paint14_linear" x1="8226.28" y1="9478.37" x2="35648.1" y2="9478.37" gradientUnits="userSpaceOnUse">
<stop stop-opacity="0.12"/>
<stop offset="0.55" stop-opacity="0.09"/>
<stop offset="1" stop-opacity="0.02"/>
</linearGradient>
<linearGradient id="paint15_linear" x1="8226.28" y1="10913.5" x2="35648.1" y2="10913.5" gradientUnits="userSpaceOnUse">
<stop stop-opacity="0.12"/>
<stop offset="0.55" stop-opacity="0.09"/>
<stop offset="1" stop-opacity="0.02"/>
</linearGradient>
<linearGradient id="paint16_linear" x1="8226.28" y1="12348.7" x2="35648.1" y2="12348.7" gradientUnits="userSpaceOnUse">
<stop stop-opacity="0.12"/>
<stop offset="0.55" stop-opacity="0.09"/>
<stop offset="1" stop-opacity="0.02"/>
</linearGradient>
<linearGradient id="paint17_linear" x1="8226.28" y1="13783.8" x2="35648.1" y2="13783.8" gradientUnits="userSpaceOnUse">
<stop stop-opacity="0.12"/>
<stop offset="0.55" stop-opacity="0.09"/>
<stop offset="1" stop-opacity="0.02"/>
</linearGradient>
<linearGradient id="paint18_linear" x1="74768" y1="24177.8" x2="415756" y2="24177.8" gradientUnits="userSpaceOnUse">
<stop stop-color="#808080" stop-opacity="0.25"/>
<stop offset="0.54" stop-color="#808080" stop-opacity="0.12"/>
<stop offset="1" stop-color="#808080" stop-opacity="0.1"/>
</linearGradient>
<linearGradient id="paint19_linear" x1="245704" y1="3289.8" x2="245704" y2="1868.67" gradientUnits="userSpaceOnUse">
<stop stop-color="#808080" stop-opacity="0.25"/>
<stop offset="0.54" stop-color="#808080" stop-opacity="0.12"/>
<stop offset="1" stop-color="#808080" stop-opacity="0.1"/>
</linearGradient>
<linearGradient id="paint20_linear" x1="299095" y1="197081" x2="299095" y2="113656" gradientUnits="userSpaceOnUse">
<stop stop-color="#808080" stop-opacity="0.25"/>
<stop offset="0.54" stop-color="#808080" stop-opacity="0.12"/>
<stop offset="1" stop-color="#808080" stop-opacity="0.1"/>
</linearGradient>
</defs>
</svg>